<?xml version="1.0" encoding="utf-8"?>
<!-- Generator: Adobe Illustrator 24.0.3, SVG Export Plug-In . SVG Version: 6.00 Build 0)  -->
<svg version="1.1" id="Layer_1" xmlns="http://www.w3.org/2000/svg" xmlns:xlink="http://www.w3.org/1999/xlink" x="0px" y="0px"
	 viewBox="0 0 55.84 57.65" style="enable-background:new 0 0 55.84 57.65;" xml:space="preserve">
<style type="text/css">
	.st0{fill:#003A54;}
</style>
<g>
	<path class="st0" d="M27.21,3.3c-13.51,0-24.5,10.99-24.5,24.5s10.99,24.5,24.5,24.5s24.5-10.99,24.5-24.5S40.72,3.3,27.21,3.3z
		 M27.21,51.3c-12.96,0-23.5-10.54-23.5-23.5S14.25,4.3,27.21,4.3s23.5,10.54,23.5,23.5S40.17,51.3,27.21,51.3z"/>
	<polygon class="st0" points="28.67,16.8 25.74,16.8 25.74,26.33 16.21,26.33 16.21,29.26 25.74,29.26 25.74,38.8 28.67,38.8 
		28.67,29.26 38.21,29.26 38.21,26.33 28.67,26.33 	"/>
</g>
</svg>
